<svg viewBox="0 0 64 64" xmlns="http://www.w3.org/2000/svg"><title/><g data-name="Layer 3"><path d="M43 53a.93.93 0 0 0 .45-.11c6.24-3.12 11.31-9.82 13.23-17.49l.32-1.16a1 1 0 0 0-2-.48l-.29 1.15C53 42 48.29 48.24 42.55 51.11a1 1 0 0 0-.44 1.34A1 1 0 0 0 43 53zM7.66 22.59l-.43 1a1 1 0 0 0 .52 1.31 1.1 1.1 0 0 0 .4.08 1 1 0 0 0 .92-.61l.43-1a6.67 6.67 0 0 0-.1-5.31 4.74 4.74 0 0 1-.06-3.66l.43-1a1 1 0 1 0-1.84-.78l-.43 1a6.67 6.67 0 0 0 .1 5.31 4.74 4.74 0 0 1 .06 3.66zm8 0l-.43 1a1 1 0 0 0 .52 1.31 1.1 1.1 0 0 0 .4.08 1 1 0 0 0 .92-.61l.43-1a6.67 6.67 0 0 0-.1-5.31 4.74 4.74 0 0 1-.06-3.66l.43-1a1 1 0 1 0-1.84-.78l-.43 1a6.67 6.67 0 0 0 .1 5.31 4.74 4.74 0 0 1 .06 3.66zm28.57 1.02a1 1 0 0 0 .52 1.31 1.1 1.1 0 0 0 .4.08 1 1 0 0 0 .92-.61l.43-1a6.67 6.67 0 0 0-.1-5.31 4.74 4.74 0 0 1-.06-3.66l.43-1a1 1 0 1 0-1.84-.78l-.43 1a6.67 6.67 0 0 0 .1 5.31 4.74 4.74 0 0 1 .06 3.66zm8 0a1 1 0 0 0 .52 1.31 1.1 1.1 0 0 0 .4.08 1 1 0 0 0 .92-.61l.43-1a6.67 6.67 0 0 0-.1-5.31 4.74 4.74 0 0 1-.06-3.66l.43-1a1 1 0 1 0-1.84-.78l-.43 1a6.67 6.67 0 0 0 .1 5.31 4.74 4.74 0 0 1 .06 3.66z"/><path d="M61 6H41V5h20a1 1 0 0 0 0-2H40.22A3 3 0 0 0 36 2.78a3 3 0 0 0-4 0 3 3 0 0 0-4 0 3 3 0 0 0-4.22.22H18a1 1 0 0 0-1 1v3a1 1 0 0 0 1 1h5v21H2a1 1 0 0 0-1 1c0 12.71 6.5 23.24 17 27.67V61a1 1 0 0 0 1 1h24a1 1 0 0 0 1-1v-3.33c10.5-4.43 17-15 17-27.67a1 1 0 0 0-1-1H41V8h20a1 1 0 0 0 0-2zM34 4a1 1 0 0 1 1 1v24h-2V5a1 1 0 0 1 1-1zm-4 0a1 1 0 0 1 1 1v24h-2V5a1 1 0 0 1 1-1zM19 6V5h4v1zm6-1a1 1 0 0 1 2 0v24h-2zm17.63 51.07A1 1 0 0 0 42 57v3H20v-3a1 1 0 0 0-.63-.93C9.55 52.22 3.35 42.67 3 31h56c-.35 11.67-6.55 21.22-16.37 25.07zM37 29V5a1 1 0 0 1 2 0v24z"/></g></svg>