<svg viewBox="0 0 100 100" xmlns="http://www.w3.org/2000/svg"><circle cx="19.5" cy="62" r="1.5"/><circle cx="27.2" cy="62" r="1.5"/><circle cx="34.9" cy="62" r="1.5"/><circle cx="42.7" cy="62" r="1.5"/><circle cx="50.4" cy="62" r="1.5"/><circle cx="58.2" cy="62" r="1.5"/><circle cx="65.9" cy="62" r="1.5"/><circle cx="27.2" cy="49.6" r="1.5"/><circle cx="34.9" cy="49.6" r="1.5"/><circle cx="42.7" cy="49.6" r="1.5"/><circle cx="50.4" cy="49.6" r="1.5"/><circle cx="58.2" cy="49.6" r="1.5"/><circle cx="23.1" cy="55.8" r="1.5"/><circle cx="30.9" cy="55.8" r="1.5"/><circle cx="38.6" cy="55.8" r="1.5"/><circle cx="46.4" cy="55.8" r="1.5"/><circle cx="54.1" cy="55.8" r="1.5"/><circle cx="61.9" cy="55.8" r="1.5"/><circle cx="30.9" cy="43" r="1.5"/><circle cx="38.6" cy="43" r="1.5"/><circle cx="46.4" cy="43" r="1.5"/><circle cx="54.1" cy="43" r="1.5"/><path d="M88.8 62.1C88 48.7 78.6 37.5 65.2 34c-1.5-2.6-4.3-4.4-7.5-4.4-2.1 0-4 .7-5.6 2-.7-.3-1.4-.4-2.1-.4-1.3-1.3-3.1-2-4.9-2-1.8 0-3.5.7-4.8 1.9-2.1-.7-4.4-.6-6.4.3-.8-.5-1.8-.7-2.8-.7-2.3 0-4.3 1.4-5.1 3.4h-.3c-4.8 0-8.7 3.9-8.7 8.7 0 .9.1 1.8.4 2.7-3.6 4.7-5.9 10.4-6.3 16.6-.1 2.1.6 4.2 2.1 5.8 1.5 1.6 3.5 2.4 5.6 2.4h62.3c2.1 0 4.1-.9 5.6-2.4 1.5-1.7 2.3-3.7 2.1-5.8zM45.1 31.2c1.4 0 2.8.6 3.8 1.7.2.2.5.4.8.3h.3c.6 0 1.2.2 1.8.5.4.2.9.2 1.2-.2 1.3-1.2 2.9-1.9 4.7-1.9 3.6 0 6.6 3 6.7 6.6 0 .3.2.6.4.7.2.2.6.3.8.2h.4c2 0 3.6 1.6 3.6 3.5v.2c0 .5.3.9.8 1 2.7.4 4.7 2.6 5 5.2v1.4c-.1.5.2.9.7 1.1 1.9.6 3.2 2.4 3.2 4.5 0 .3 0 .7-.1 1-.1.3 0 .5.1.8.1.2.4.4.6.4 2.3.5 4 2.6 4 4.9 0 2.5-1.8 4.5-4.1 5-2.8-.5-5-3-5-6C74.9 46.3 60.3 33 43 33c-.6 0-1.2 0-1.8.1 1-1.2 2.4-1.9 3.9-1.9zM19 42.8c0-3.7 3-6.7 6.7-6.7.3 0 .6 0 .8.1.5.1 1-.3 1.1-.7.4-1.6 1.8-2.7 3.5-2.7.8 0 1.5.2 2.1.7.3.2.7.3 1.1.1 1.7-.9 3.7-1 5.5-.3-8.2.8-15.6 4.7-20.8 10.4v-.9zm-.2 25.4c-1.6 0-3.1-.6-4.2-1.8-1.1-1.2-1.6-2.7-1.5-4.3C14.1 46.9 27.2 35 43 35c16.2 0 29.9 12.4 29.9 27.2 0 2.4 1.1 4.6 2.8 6.1l-56.9-.1zm66.5-1.8l-.3.3c.6-1 1-2.3 1-3.6 0-3-1.9-5.6-4.6-6.6V56c0-2.6-1.5-5-3.8-6.1v-1c-.3-3.3-2.7-6-5.9-6.9-.3-2.7-2.6-4.7-5.3-4.9 0-.3-.1-.5-.2-.8C77.9 40 86.1 50.2 86.8 62.2c.1 1.6-.4 3.1-1.5 4.2z"/></svg>