<svg viewBox="0 0 64 64" xmlns="http://www.w3.org/2000/svg"><path fill="#343433" d="M39.011 59.842l1.005-8.037 1.984.248-1.004 8.037zM51 19H13c-1.9 0-3-1.1-3-3v-4c0-1.9 1.1-3 3-3h2.2l.8-4.1C16 2.5 17.5 1 20 1h24c2.4 0 4 1.5 4 3.9l.8 4.1H51c1.9 0 3 1.1 3 3v4c0 1.9-1.1 3-3 3zm-38-8c-.8 0-1 .2-1 1v4c0 .8.2 1 1 1h38c.8 0 1-.2 1-1v-4c0-.8-.2-1-1-1h-3.8L46 5c0-1.3-.7-2-2-2H20c-1.4 0-2 .6-2 2v.2L16.8 11H13z"/><path fill="#343433" d="M27 9h17v2H27zm-4 0h2v2h-2zm-4 0h2v2h-2zm28.012 20.852l2.009-12.034 1.972.329-2.008 12.034zM43 63H21c-1.3 0-2-1-2-1.9l-2-13.9 2-.3L21 61h22v-.1l2-14 2 .3-2 13.9c0 .9-.7 1.9-2 1.9zM13.37 18.193l1.98-.277L17.022 29.9l-1.98.277z"/><path d="M46 48H18c-1 0-1.9-.8-2-1.9l-2-15c0-.3-.1-1 .4-1.5.3-.3.7-.6 1.6-.6h32c.8 0 1.3.3 1.6.6.3.4.5.9.4 1.5l-2 15c-.1 1.1-1 1.9-2 1.9zM16 31l2 14.9c0 .1 0 .1.1.1H46v-.1L48 31H16z" fill="#343433"/><path d="M32 45c-3.3 0-6-2.7-6-6s2.7-6 6-6 6 2.7 6 6-2.7 6-6 6zm0-10c-2.2 0-4 1.8-4 4s1.8 4 4 4 4-1.8 4-4-1.8-4-4-4z" fill="#343433"/></svg>