<svg xmlns="http://www.w3.org/2000/svg" width="768" height="1024" viewBox="0 0 768 1024"><path d="M178.674 553.026l17.286-6.7 1.694 8.753c1.045 4.921 3.023 8.287 5.938 10.098 2.911 1.812 6.253 2.353 10.023 1.622 3.949-.764 6.804-2.621 8.562-5.57 1.756-2.945 2.229-6.531 1.411-10.752l-12.777-65.987 18.584-3.598 12.776 65.987c.834 4.309.88 8.516.138 12.617-.742 4.104-2.205 7.857-4.385 11.258-2.185 3.405-5.022 6.307-8.515 8.705-3.495 2.398-7.577 4.053-12.244 4.955-4.759.922-9.19 1.012-13.292.269-4.103-.743-7.788-2.216-11.055-4.427-3.27-2.206-6.013-5.074-8.233-8.604-2.22-3.528-3.782-7.626-4.686-12.296l-1.225-6.33zm75.195-27.274c-1.495-7.721-1.491-14.917.012-21.588 1.502-6.671 4.08-12.597 7.735-17.776 3.653-5.178 8.223-9.486 13.705-12.922 5.482-3.437 11.456-5.781 17.919-7.032 6.464-1.251 12.902-1.311 19.316-.178 6.413 1.133 12.281 3.421 17.606 6.86 5.323 3.441 9.927 7.976 13.811 13.604 3.884 5.628 6.573 12.302 8.068 20.023 1.495 7.722 1.487 14.896-.024 21.521-1.511 6.628-4.094 12.529-7.749 17.708-3.656 5.179-8.246 9.491-13.772 12.937-5.529 3.445-11.523 5.794-17.987 7.045-6.463 1.252-12.88 1.307-19.249.164-6.369-1.142-12.216-3.433-17.538-6.873-5.325-3.439-9.922-7.951-13.798-13.535-3.874-5.584-6.56-12.235-8.055-19.958zm19.232-3.863c1.043 5.387 2.803 9.914 5.283 13.578 2.478 3.665 5.385 6.525 8.717 8.58 3.333 2.059 6.897 3.394 10.696 4.008 3.797.615 7.536.566 11.218-.146 3.681-.713 7.191-2.067 10.53-4.064a28.824 28.824 0 0 0 8.494-7.723c2.325-3.15 3.952-6.889 4.885-11.216.93-4.323.877-9.182-.166-14.568s-2.806-9.912-5.284-13.577c-2.48-3.663-5.385-6.524-8.718-8.582a28.884 28.884 0 0 0-10.763-3.994c-3.843-.605-7.605-.553-11.286.16-3.682.713-7.168 2.064-10.462 4.051-3.296 1.99-6.104 4.56-8.428 7.709-2.323 3.153-3.953 6.892-4.884 11.215-.931 4.326-.875 9.182.168 14.569zm138.508-47.358c-.529-1.295-1.283-2.662-2.26-4.103-.979-1.44-2.27-2.705-3.878-3.791-1.608-1.086-3.556-1.873-5.837-2.363-2.284-.487-4.953-.438-8.004.152-2.245.435-4.223 1.168-5.932 2.197-1.712 1.03-3.109 2.233-4.192 3.606-1.085 1.376-1.848 2.851-2.288 4.425a10.288 10.288 0 0 0-.189 4.787c.504 2.604 1.794 4.706 3.875 6.306 2.078 1.601 4.939 2.42 8.58 2.46l13.828-.022c4.466-.027 8.533.537 12.203 1.689 3.668 1.153 6.864 2.746 9.588 4.779 2.722 2.036 4.963 4.466 6.721 7.292a27.072 27.072 0 0 1 3.602 9.223c.713 3.682.649 7.443-.19 11.284-.841 3.844-2.454 7.415-4.841 10.718-2.388 3.305-5.549 6.222-9.481 8.752-3.936 2.53-8.686 4.336-14.251 5.414-6.376 1.234-12.029 1.372-16.964.42-4.936-.952-9.23-2.566-12.883-4.841-3.653-2.272-6.632-5.024-8.935-8.26-2.304-3.232-3.965-6.519-4.984-9.862l16.352-7.917a20.956 20.956 0 0 0 2.987 6.407 18.277 18.277 0 0 0 5.081 4.955c2.025 1.332 4.393 2.246 7.098 2.747 2.703.503 5.762.421 9.174-.24 5.029-.974 8.654-2.815 10.877-5.528 2.222-2.712 3.004-5.773 2.344-9.187-.539-2.782-1.994-4.993-4.359-6.63-2.365-1.638-5.503-2.449-9.413-2.439l-13.854-.111c-7.927-.048-14.614-1.991-20.059-5.826-5.448-3.836-8.875-9.39-10.283-16.662-.816-4.219-.702-8.317.344-12.292a30.307 30.307 0 0 1 5.367-10.889c2.529-3.284 5.67-6.08 9.413-8.389 3.745-2.308 7.86-3.897 12.351-4.767 5.744-1.112 10.813-1.277 15.203-.499 4.389.781 8.164 2.121 11.328 4.024 3.162 1.903 5.767 4.17 7.812 6.801 2.047 2.631 3.601 5.24 4.661 7.83l-15.712 8.35zm107.088 49.403l-7.665-39.592-41.613 8.058 7.666 39.592-18.584 3.599-18.487-95.479 18.584-3.598 7.433 38.379 41.612-8.057-7.433-38.379 18.72-3.625 18.487 95.479-18.72 3.623zM401.641 627.72l-12.491 12.911-.867 27.009-18.919-.607 3.118-97.203 18.92.607-1.411 44.009 40.347-42.76 24.815.796-39.884 41.128 37.04 56.084-23.718-.761-26.95-41.213zm98.719 45.711c-5.211-.167-10.052-1.101-14.526-2.799s-8.33-4.155-11.566-7.37c-3.238-3.214-5.764-7.138-7.582-11.772-1.82-4.632-2.634-9.918-2.442-15.86l2.014-62.792 18.92.608-1.971 61.42c-.204 6.397 1.285 11.295 4.47 14.69 3.186 3.396 7.61 5.185 13.279 5.366 5.758.186 10.334-1.314 13.729-4.499 3.396-3.185 5.197-7.977 5.402-14.375l1.97-61.42 18.92.606-2.014 62.791c-.191 5.943-1.344 11.167-3.453 15.672-2.114 4.508-4.887 8.262-8.322 11.262-3.437 3.001-7.464 5.205-12.083 6.611-4.622 1.407-9.536 2.028-14.745 1.861zm121.814 1.712l-41.935-70.377-2.212 68.96-18.92-.606 3.118-97.203 23.581.757 38.383 65.596 2.062-64.299 18.92.607-3.118 97.203-19.879-.638z" fill="#B1A679"/></svg>